# xmcd CD database file
# Copyright (C) 1997 Ti Kan
# 
# Track frame offsets:
#     150
#     14145
#     38340
#     56160
#     72810
#     92285
# 
# Disc length: 1527 seconds
# 
# Revision: 1
# Processed by: cddbd v1.4b41PL1 Copyright (c) Steve Scherf et al.
# Submitted via: DiscPlay 4.0.3
# 
DISCID=4305f506
DTITLE=Various Artist - Summer Blues Pack
DYEAR=1900
DGENRE=
TTITLE0=A Little Meat On The Side
TTITLE1=Blues Got Me Again
TTITLE2=Serpent's Touch
TTITLE3=Temporary Insanity
TTITLE4=Last Four Nickels
TTITLE5=High Heel Sneakers
EXTD=
EXTT0=
EXTT1=
EXTT2=
EXTT3=
EXTT4=
EXTT5=
PLAYORDER=
